<svg xmlns="http://www.w3.org/2000/svg" xmlns:xlink="http://www.w3.org/1999/xlink" width="83" zoomAndPan="magnify" viewBox="0 0 62.25 13.5" height="18" preserveAspectRatio="xMidYMid meet" version="1.0"><defs><g/><clipPath id="24b77eb8c1"><path d="M 0.75 2.542969 L 5 2.542969 L 5 9 L 0.75 9 Z M 0.75 2.542969 " clip-rule="nonzero"/></clipPath><clipPath id="cf0924db74"><path d="M 3 2.542969 L 10.988281 2.542969 L 10.988281 12.027344 L 3 12.027344 Z M 3 2.542969 " clip-rule="nonzero"/></clipPath></defs><g fill="#000000" fill-opacity="1"><g transform="translate(12.166395, 9.192144)"><g><path d="M 4.609375 -5.078125 C 4.585938 -4.835938 4.570312 -4.601562 4.5625 -4.375 C 4.550781 -4.144531 4.546875 -3.972656 4.546875 -3.859375 C 4.546875 -3.753906 4.546875 -3.648438 4.546875 -3.546875 C 4.554688 -3.453125 4.566406 -3.375 4.578125 -3.3125 L 4.40625 -3.3125 C 4.332031 -3.71875 4.234375 -4.035156 4.109375 -4.265625 C 3.992188 -4.503906 3.851562 -4.671875 3.6875 -4.765625 C 3.53125 -4.859375 3.34375 -4.90625 3.125 -4.90625 L 2.96875 -4.90625 L 2.96875 -0.8125 C 2.96875 -0.625 2.984375 -0.484375 3.015625 -0.390625 C 3.054688 -0.296875 3.128906 -0.234375 3.234375 -0.203125 C 3.347656 -0.171875 3.515625 -0.148438 3.734375 -0.140625 L 3.734375 0 C 3.578125 0 3.375 0 3.125 0 C 2.882812 -0.0078125 2.628906 -0.015625 2.359375 -0.015625 C 2.097656 -0.015625 1.847656 -0.0078125 1.609375 0 C 1.378906 0 1.191406 0 1.046875 0 L 1.046875 -0.140625 C 1.265625 -0.148438 1.425781 -0.171875 1.53125 -0.203125 C 1.644531 -0.234375 1.722656 -0.296875 1.765625 -0.390625 C 1.804688 -0.484375 1.828125 -0.625 1.828125 -0.8125 L 1.828125 -4.90625 L 1.65625 -4.90625 C 1.4375 -4.90625 1.242188 -4.859375 1.078125 -4.765625 C 0.921875 -4.671875 0.785156 -4.503906 0.671875 -4.265625 C 0.554688 -4.035156 0.457031 -3.71875 0.375 -3.3125 L 0.203125 -3.3125 C 0.210938 -3.375 0.21875 -3.453125 0.21875 -3.546875 C 0.226562 -3.648438 0.234375 -3.753906 0.234375 -3.859375 C 0.234375 -3.972656 0.226562 -4.144531 0.21875 -4.375 C 0.207031 -4.601562 0.191406 -4.835938 0.171875 -5.078125 C 0.398438 -5.078125 0.644531 -5.070312 0.90625 -5.0625 C 1.164062 -5.0625 1.425781 -5.0625 1.6875 -5.0625 C 1.945312 -5.0625 2.179688 -5.0625 2.390625 -5.0625 C 2.609375 -5.0625 2.847656 -5.0625 3.109375 -5.0625 C 3.367188 -5.0625 3.628906 -5.0625 3.890625 -5.0625 C 4.148438 -5.070312 4.390625 -5.078125 4.609375 -5.078125 Z M 4.609375 -5.078125 "/></g></g></g><g fill="#000000" fill-opacity="1"><g transform="translate(17.48546, 9.192144)"><g><path d="M 1.625 -5.609375 L 1.625 -3.140625 C 1.75 -3.390625 1.910156 -3.5625 2.109375 -3.65625 C 2.316406 -3.757812 2.546875 -3.8125 2.796875 -3.8125 C 3.003906 -3.8125 3.171875 -3.785156 3.296875 -3.734375 C 3.421875 -3.679688 3.515625 -3.613281 3.578125 -3.53125 C 3.660156 -3.4375 3.71875 -3.316406 3.75 -3.171875 C 3.789062 -3.035156 3.8125 -2.84375 3.8125 -2.59375 L 3.8125 -0.671875 C 3.8125 -0.460938 3.84375 -0.320312 3.90625 -0.25 C 3.976562 -0.1875 4.101562 -0.15625 4.28125 -0.15625 L 4.28125 0 C 4.1875 0 4.046875 -0.00390625 3.859375 -0.015625 C 3.671875 -0.0234375 3.492188 -0.03125 3.328125 -0.03125 C 3.140625 -0.03125 2.957031 -0.0234375 2.78125 -0.015625 C 2.613281 -0.00390625 2.484375 0 2.390625 0 L 2.390625 -0.15625 C 2.535156 -0.15625 2.632812 -0.1875 2.6875 -0.25 C 2.75 -0.320312 2.78125 -0.460938 2.78125 -0.671875 L 2.78125 -2.890625 C 2.78125 -3.015625 2.769531 -3.117188 2.75 -3.203125 C 2.726562 -3.296875 2.679688 -3.367188 2.609375 -3.421875 C 2.546875 -3.472656 2.457031 -3.5 2.34375 -3.5 C 2.207031 -3.5 2.085938 -3.460938 1.984375 -3.390625 C 1.878906 -3.316406 1.789062 -3.21875 1.71875 -3.09375 C 1.65625 -2.96875 1.625 -2.828125 1.625 -2.671875 L 1.625 -0.671875 C 1.625 -0.460938 1.648438 -0.320312 1.703125 -0.25 C 1.765625 -0.1875 1.867188 -0.15625 2.015625 -0.15625 L 2.015625 0 C 1.929688 0 1.804688 -0.00390625 1.640625 -0.015625 C 1.472656 -0.0234375 1.300781 -0.03125 1.125 -0.03125 C 0.9375 -0.03125 0.75 -0.0234375 0.5625 -0.015625 C 0.375 -0.00390625 0.234375 0 0.140625 0 L 0.140625 -0.15625 C 0.304688 -0.15625 0.421875 -0.1875 0.484375 -0.25 C 0.554688 -0.320312 0.59375 -0.460938 0.59375 -0.671875 L 0.59375 -4.75 C 0.59375 -4.96875 0.5625 -5.125 0.5 -5.21875 C 0.4375 -5.320312 0.316406 -5.375 0.140625 -5.375 L 0.140625 -5.53125 C 0.285156 -5.519531 0.429688 -5.515625 0.578125 -5.515625 C 0.773438 -5.515625 0.960938 -5.519531 1.140625 -5.53125 C 1.316406 -5.550781 1.476562 -5.578125 1.625 -5.609375 Z M 1.625 -5.609375 "/></g></g></g><g fill="#000000" fill-opacity="1"><g transform="translate(22.37442, 9.192144)"><g><path d="M 2.015625 -3.8125 C 2.367188 -3.8125 2.675781 -3.742188 2.9375 -3.609375 C 3.195312 -3.484375 3.398438 -3.273438 3.546875 -2.984375 C 3.703125 -2.703125 3.78125 -2.320312 3.78125 -1.84375 C 3.78125 -1.375 3.703125 -0.992188 3.546875 -0.703125 C 3.398438 -0.421875 3.195312 -0.21875 2.9375 -0.09375 C 2.675781 0.03125 2.367188 0.09375 2.015625 0.09375 C 1.679688 0.09375 1.378906 0.03125 1.109375 -0.09375 C 0.847656 -0.21875 0.640625 -0.421875 0.484375 -0.703125 C 0.335938 -0.992188 0.265625 -1.375 0.265625 -1.84375 C 0.265625 -2.320312 0.335938 -2.703125 0.484375 -2.984375 C 0.640625 -3.273438 0.847656 -3.484375 1.109375 -3.609375 C 1.378906 -3.742188 1.679688 -3.8125 2.015625 -3.8125 Z M 2.015625 -3.671875 C 1.828125 -3.671875 1.664062 -3.523438 1.53125 -3.234375 C 1.40625 -2.953125 1.34375 -2.488281 1.34375 -1.84375 C 1.34375 -1.207031 1.40625 -0.75 1.53125 -0.46875 C 1.664062 -0.1875 1.828125 -0.046875 2.015625 -0.046875 C 2.210938 -0.046875 2.375 -0.1875 2.5 -0.46875 C 2.632812 -0.75 2.703125 -1.207031 2.703125 -1.84375 C 2.703125 -2.488281 2.632812 -2.953125 2.5 -3.234375 C 2.375 -3.523438 2.210938 -3.671875 2.015625 -3.671875 Z M 2.015625 -3.671875 "/></g></g></g><g fill="#000000" fill-opacity="1"><g transform="translate(26.955135, 9.192144)"><g><path d="M 2.640625 -3.8125 C 2.796875 -3.8125 2.921875 -3.773438 3.015625 -3.703125 C 3.109375 -3.640625 3.175781 -3.554688 3.21875 -3.453125 C 3.269531 -3.359375 3.296875 -3.257812 3.296875 -3.15625 C 3.296875 -2.976562 3.242188 -2.832031 3.140625 -2.71875 C 3.035156 -2.601562 2.898438 -2.546875 2.734375 -2.546875 C 2.566406 -2.546875 2.4375 -2.585938 2.34375 -2.671875 C 2.25 -2.753906 2.203125 -2.863281 2.203125 -3 C 2.203125 -3.132812 2.226562 -3.242188 2.28125 -3.328125 C 2.34375 -3.421875 2.421875 -3.5 2.515625 -3.5625 C 2.453125 -3.582031 2.382812 -3.582031 2.3125 -3.5625 C 2.226562 -3.539062 2.144531 -3.5 2.0625 -3.4375 C 1.976562 -3.382812 1.90625 -3.3125 1.84375 -3.21875 C 1.789062 -3.132812 1.742188 -3.039062 1.703125 -2.9375 C 1.671875 -2.832031 1.65625 -2.734375 1.65625 -2.640625 L 1.65625 -0.734375 C 1.65625 -0.503906 1.710938 -0.347656 1.828125 -0.265625 C 1.941406 -0.191406 2.113281 -0.15625 2.34375 -0.15625 L 2.34375 0 C 2.226562 0 2.066406 -0.00390625 1.859375 -0.015625 C 1.648438 -0.0234375 1.429688 -0.03125 1.203125 -0.03125 C 1.003906 -0.03125 0.804688 -0.0234375 0.609375 -0.015625 C 0.421875 -0.00390625 0.273438 0 0.171875 0 L 0.171875 -0.15625 C 0.335938 -0.15625 0.453125 -0.1875 0.515625 -0.25 C 0.585938 -0.320312 0.625 -0.460938 0.625 -0.671875 L 0.625 -2.921875 C 0.625 -3.140625 0.59375 -3.300781 0.53125 -3.40625 C 0.46875 -3.507812 0.347656 -3.5625 0.171875 -3.5625 L 0.171875 -3.703125 C 0.328125 -3.691406 0.472656 -3.6875 0.609375 -3.6875 C 0.816406 -3.6875 1.003906 -3.691406 1.171875 -3.703125 C 1.347656 -3.722656 1.507812 -3.75 1.65625 -3.78125 L 1.65625 -3.125 C 1.71875 -3.25 1.796875 -3.363281 1.890625 -3.46875 C 1.984375 -3.570312 2.09375 -3.65625 2.21875 -3.71875 C 2.34375 -3.78125 2.484375 -3.8125 2.640625 -3.8125 Z M 2.640625 -3.8125 "/></g></g></g><g fill="#000000" fill-opacity="1"><g transform="translate(30.833342, 9.192144)"><g><path d="M 2.84375 -3.8125 C 3.039062 -3.8125 3.203125 -3.785156 3.328125 -3.734375 C 3.453125 -3.679688 3.550781 -3.613281 3.625 -3.53125 C 3.707031 -3.4375 3.765625 -3.316406 3.796875 -3.171875 C 3.828125 -3.035156 3.84375 -2.84375 3.84375 -2.59375 L 3.84375 -0.671875 C 3.84375 -0.460938 3.878906 -0.320312 3.953125 -0.25 C 4.023438 -0.1875 4.144531 -0.15625 4.3125 -0.15625 L 4.3125 0 C 4.21875 0 4.078125 -0.00390625 3.890625 -0.015625 C 3.710938 -0.0234375 3.535156 -0.03125 3.359375 -0.03125 C 3.179688 -0.03125 3.003906 -0.0234375 2.828125 -0.015625 C 2.648438 -0.00390625 2.519531 0 2.4375 0 L 2.4375 -0.15625 C 2.570312 -0.15625 2.664062 -0.1875 2.71875 -0.25 C 2.78125 -0.320312 2.8125 -0.460938 2.8125 -0.671875 L 2.8125 -2.890625 C 2.8125 -3.015625 2.800781 -3.117188 2.78125 -3.203125 C 2.757812 -3.296875 2.71875 -3.367188 2.65625 -3.421875 C 2.59375 -3.472656 2.5 -3.5 2.375 -3.5 C 2.25 -3.5 2.128906 -3.460938 2.015625 -3.390625 C 1.910156 -3.316406 1.820312 -3.210938 1.75 -3.078125 C 1.6875 -2.953125 1.65625 -2.8125 1.65625 -2.65625 L 1.65625 -0.671875 C 1.65625 -0.460938 1.6875 -0.320312 1.75 -0.25 C 1.8125 -0.1875 1.910156 -0.15625 2.046875 -0.15625 L 2.046875 0 C 1.960938 0 1.835938 -0.00390625 1.671875 -0.015625 C 1.503906 -0.0234375 1.332031 -0.03125 1.15625 -0.03125 C 0.976562 -0.03125 0.789062 -0.0234375 0.59375 -0.015625 C 0.40625 -0.00390625 0.265625 0 0.171875 0 L 0.171875 -0.15625 C 0.335938 -0.15625 0.453125 -0.1875 0.515625 -0.25 C 0.585938 -0.320312 0.625 -0.460938 0.625 -0.671875 L 0.625 -2.921875 C 0.625 -3.140625 0.59375 -3.300781 0.53125 -3.40625 C 0.46875 -3.507812 0.347656 -3.5625 0.171875 -3.5625 L 0.171875 -3.703125 C 0.328125 -3.691406 0.472656 -3.6875 0.609375 -3.6875 C 0.816406 -3.6875 1.003906 -3.691406 1.171875 -3.703125 C 1.347656 -3.722656 1.507812 -3.75 1.65625 -3.78125 L 1.65625 -3.140625 C 1.78125 -3.378906 1.941406 -3.550781 2.140625 -3.65625 C 2.347656 -3.757812 2.582031 -3.8125 2.84375 -3.8125 Z M 2.84375 -3.8125 "/></g></g></g><g fill="#ff9130" fill-opacity="1"><g transform="translate(35.767543, 9.192144)"><g><path d="M 1.21875 -6.15625 L 1.21875 1.40625 L 0.59375 1.40625 L 0.59375 -6.15625 Z M 1.21875 -6.15625 "/></g></g></g><g fill="#000000" fill-opacity="1"><g transform="translate(38.112738, 9.192144)"><g><path d="M 4.078125 -5.078125 C 4.054688 -4.859375 4.039062 -4.648438 4.03125 -4.453125 C 4.03125 -4.253906 4.03125 -4.097656 4.03125 -3.984375 C 4.03125 -3.878906 4.03125 -3.78125 4.03125 -3.6875 C 4.039062 -3.59375 4.046875 -3.507812 4.046875 -3.4375 L 3.890625 -3.4375 C 3.828125 -3.8125 3.738281 -4.101562 3.625 -4.3125 C 3.519531 -4.53125 3.382812 -4.679688 3.21875 -4.765625 C 3.0625 -4.859375 2.875 -4.90625 2.65625 -4.90625 L 2.421875 -4.90625 C 2.273438 -4.90625 2.164062 -4.894531 2.09375 -4.875 C 2.03125 -4.851562 1.984375 -4.804688 1.953125 -4.734375 C 1.929688 -4.660156 1.921875 -4.550781 1.921875 -4.40625 L 1.921875 -0.796875 C 1.921875 -0.617188 1.9375 -0.484375 1.96875 -0.390625 C 2.007812 -0.296875 2.082031 -0.234375 2.1875 -0.203125 C 2.300781 -0.179688 2.46875 -0.164062 2.6875 -0.15625 L 2.6875 0 C 2.539062 0 2.347656 0 2.109375 0 C 1.878906 -0.0078125 1.632812 -0.015625 1.375 -0.015625 C 1.164062 -0.015625 0.960938 -0.0078125 0.765625 0 C 0.578125 0 0.40625 0 0.25 0 L 0.25 -0.140625 C 0.394531 -0.148438 0.503906 -0.171875 0.578125 -0.203125 C 0.660156 -0.234375 0.710938 -0.289062 0.734375 -0.375 C 0.765625 -0.457031 0.78125 -0.585938 0.78125 -0.765625 L 0.78125 -4.3125 C 0.78125 -4.488281 0.765625 -4.617188 0.734375 -4.703125 C 0.710938 -4.785156 0.660156 -4.84375 0.578125 -4.875 C 0.503906 -4.90625 0.394531 -4.925781 0.25 -4.9375 L 0.25 -5.078125 C 0.4375 -5.078125 0.640625 -5.070312 0.859375 -5.0625 C 1.085938 -5.0625 1.304688 -5.0625 1.515625 -5.0625 C 1.734375 -5.0625 1.9375 -5.0625 2.125 -5.0625 C 2.3125 -5.0625 2.460938 -5.0625 2.578125 -5.0625 C 2.796875 -5.0625 3.046875 -5.0625 3.328125 -5.0625 C 3.609375 -5.0625 3.859375 -5.066406 4.078125 -5.078125 Z M 3.015625 -2.59375 C 3.015625 -2.59375 3.015625 -2.566406 3.015625 -2.515625 C 3.015625 -2.472656 3.015625 -2.453125 3.015625 -2.453125 L 1.703125 -2.453125 C 1.703125 -2.453125 1.703125 -2.472656 1.703125 -2.515625 C 1.703125 -2.566406 1.703125 -2.59375 1.703125 -2.59375 Z M 3.1875 -3.546875 C 3.164062 -3.273438 3.15625 -3.066406 3.15625 -2.921875 C 3.164062 -2.773438 3.171875 -2.644531 3.171875 -2.53125 C 3.171875 -2.40625 3.171875 -2.269531 3.171875 -2.125 C 3.179688 -1.988281 3.195312 -1.78125 3.21875 -1.5 L 3.046875 -1.5 C 3.015625 -1.664062 2.96875 -1.820312 2.90625 -1.96875 C 2.84375 -2.113281 2.75 -2.226562 2.625 -2.3125 C 2.507812 -2.40625 2.359375 -2.453125 2.171875 -2.453125 L 2.171875 -2.59375 C 2.316406 -2.59375 2.4375 -2.625 2.53125 -2.6875 C 2.632812 -2.75 2.71875 -2.828125 2.78125 -2.921875 C 2.851562 -3.015625 2.90625 -3.117188 2.9375 -3.234375 C 2.976562 -3.347656 3.007812 -3.453125 3.03125 -3.546875 Z M 3.1875 -3.546875 "/></g></g></g><g fill="#000000" fill-opacity="1"><g transform="translate(42.887002, 9.192144)"><g><path d="M 1.09375 -5.5625 C 1.300781 -5.5625 1.460938 -5.507812 1.578125 -5.40625 C 1.691406 -5.3125 1.75 -5.175781 1.75 -5 C 1.75 -4.832031 1.691406 -4.695312 1.578125 -4.59375 C 1.460938 -4.5 1.300781 -4.453125 1.09375 -4.453125 C 0.894531 -4.453125 0.738281 -4.5 0.625 -4.59375 C 0.507812 -4.695312 0.453125 -4.832031 0.453125 -5 C 0.453125 -5.175781 0.507812 -5.3125 0.625 -5.40625 C 0.738281 -5.507812 0.894531 -5.5625 1.09375 -5.5625 Z M 1.65625 -3.78125 L 1.65625 -0.671875 C 1.65625 -0.460938 1.691406 -0.320312 1.765625 -0.25 C 1.835938 -0.1875 1.957031 -0.15625 2.125 -0.15625 L 2.125 0 C 2.039062 0 1.90625 -0.00390625 1.71875 -0.015625 C 1.539062 -0.0234375 1.359375 -0.03125 1.171875 -0.03125 C 0.984375 -0.03125 0.789062 -0.0234375 0.59375 -0.015625 C 0.40625 -0.00390625 0.265625 0 0.171875 0 L 0.171875 -0.15625 C 0.335938 -0.15625 0.453125 -0.1875 0.515625 -0.25 C 0.585938 -0.320312 0.625 -0.460938 0.625 -0.671875 L 0.625 -2.921875 C 0.625 -3.140625 0.59375 -3.300781 0.53125 -3.40625 C 0.46875 -3.507812 0.347656 -3.5625 0.171875 -3.5625 L 0.171875 -3.703125 C 0.328125 -3.691406 0.472656 -3.6875 0.609375 -3.6875 C 0.816406 -3.6875 1.003906 -3.691406 1.171875 -3.703125 C 1.347656 -3.722656 1.507812 -3.75 1.65625 -3.78125 Z M 1.65625 -3.78125 "/></g></g></g><g fill="#000000" fill-opacity="1"><g transform="translate(45.675603, 9.192144)"><g><path d="M 2.015625 -3.8125 C 2.441406 -3.8125 2.773438 -3.6875 3.015625 -3.4375 C 3.253906 -3.1875 3.375 -2.78125 3.375 -2.21875 L 1.015625 -2.21875 L 1 -2.359375 L 2.46875 -2.359375 C 2.46875 -2.585938 2.453125 -2.800781 2.421875 -3 C 2.390625 -3.195312 2.335938 -3.351562 2.265625 -3.46875 C 2.191406 -3.59375 2.097656 -3.65625 1.984375 -3.65625 C 1.816406 -3.65625 1.671875 -3.550781 1.546875 -3.34375 C 1.429688 -3.132812 1.363281 -2.785156 1.34375 -2.296875 L 1.359375 -2.25 C 1.359375 -2.195312 1.351562 -2.140625 1.34375 -2.078125 C 1.34375 -2.015625 1.34375 -1.945312 1.34375 -1.875 C 1.34375 -1.550781 1.390625 -1.285156 1.484375 -1.078125 C 1.578125 -0.867188 1.695312 -0.71875 1.84375 -0.625 C 1.988281 -0.53125 2.132812 -0.484375 2.28125 -0.484375 C 2.382812 -0.484375 2.488281 -0.5 2.59375 -0.53125 C 2.695312 -0.5625 2.800781 -0.617188 2.90625 -0.703125 C 3.019531 -0.785156 3.128906 -0.90625 3.234375 -1.0625 L 3.359375 -1.015625 C 3.296875 -0.835938 3.203125 -0.660156 3.078125 -0.484375 C 2.953125 -0.316406 2.796875 -0.175781 2.609375 -0.0625 C 2.421875 0.0390625 2.191406 0.09375 1.921875 0.09375 C 1.597656 0.09375 1.3125 0.0234375 1.0625 -0.109375 C 0.8125 -0.242188 0.613281 -0.453125 0.46875 -0.734375 C 0.332031 -1.015625 0.265625 -1.375 0.265625 -1.8125 C 0.265625 -2.257812 0.335938 -2.628906 0.484375 -2.921875 C 0.640625 -3.222656 0.847656 -3.445312 1.109375 -3.59375 C 1.378906 -3.738281 1.679688 -3.8125 2.015625 -3.8125 Z M 2.015625 -3.8125 "/></g></g></g><g fill="#000000" fill-opacity="1"><g transform="translate(49.819043, 9.192144)"><g><path d="M 1.640625 -5.609375 L 1.640625 -0.671875 C 1.640625 -0.460938 1.671875 -0.320312 1.734375 -0.25 C 1.804688 -0.1875 1.925781 -0.15625 2.09375 -0.15625 L 2.09375 0 C 2 0 1.859375 -0.00390625 1.671875 -0.015625 C 1.492188 -0.0234375 1.316406 -0.03125 1.140625 -0.03125 C 0.953125 -0.03125 0.757812 -0.0234375 0.5625 -0.015625 C 0.375 -0.00390625 0.234375 0 0.140625 0 L 0.140625 -0.15625 C 0.304688 -0.15625 0.425781 -0.1875 0.5 -0.25 C 0.570312 -0.320312 0.609375 -0.460938 0.609375 -0.671875 L 0.609375 -4.75 C 0.609375 -4.96875 0.570312 -5.128906 0.5 -5.234375 C 0.4375 -5.335938 0.316406 -5.390625 0.140625 -5.390625 L 0.140625 -5.53125 C 0.296875 -5.519531 0.445312 -5.515625 0.59375 -5.515625 C 0.78125 -5.515625 0.960938 -5.519531 1.140625 -5.53125 C 1.316406 -5.550781 1.484375 -5.578125 1.640625 -5.609375 Z M 1.640625 -5.609375 "/></g></g></g><g fill="#000000" fill-opacity="1"><g transform="translate(52.578971, 9.192144)"><g><path d="M 3.703125 -5.609375 L 3.703125 -0.78125 C 3.703125 -0.570312 3.734375 -0.414062 3.796875 -0.3125 C 3.867188 -0.207031 3.988281 -0.15625 4.15625 -0.15625 L 4.15625 0 C 4.007812 -0.0195312 3.863281 -0.03125 3.71875 -0.03125 C 3.507812 -0.03125 3.316406 -0.0195312 3.140625 0 C 2.972656 0.0078125 2.816406 0.0351562 2.671875 0.078125 L 2.671875 -4.75 C 2.671875 -4.96875 2.632812 -5.128906 2.5625 -5.234375 C 2.5 -5.335938 2.378906 -5.390625 2.203125 -5.390625 L 2.203125 -5.53125 C 2.359375 -5.519531 2.507812 -5.515625 2.65625 -5.515625 C 2.851562 -5.515625 3.039062 -5.519531 3.21875 -5.53125 C 3.394531 -5.550781 3.554688 -5.578125 3.703125 -5.609375 Z M 1.875 -3.8125 C 2.082031 -3.8125 2.265625 -3.773438 2.421875 -3.703125 C 2.585938 -3.628906 2.710938 -3.515625 2.796875 -3.359375 L 2.71875 -3.28125 C 2.65625 -3.394531 2.570312 -3.472656 2.46875 -3.515625 C 2.363281 -3.566406 2.253906 -3.59375 2.140625 -3.59375 C 1.898438 -3.59375 1.707031 -3.453125 1.5625 -3.171875 C 1.414062 -2.890625 1.347656 -2.453125 1.359375 -1.859375 C 1.359375 -1.453125 1.382812 -1.128906 1.4375 -0.890625 C 1.488281 -0.648438 1.566406 -0.472656 1.671875 -0.359375 C 1.773438 -0.253906 1.894531 -0.203125 2.03125 -0.203125 C 2.195312 -0.203125 2.34375 -0.265625 2.46875 -0.390625 C 2.59375 -0.523438 2.660156 -0.703125 2.671875 -0.921875 L 2.71875 -0.671875 C 2.644531 -0.421875 2.523438 -0.226562 2.359375 -0.09375 C 2.203125 0.03125 1.992188 0.09375 1.734375 0.09375 C 1.453125 0.09375 1.195312 0.0234375 0.96875 -0.109375 C 0.75 -0.242188 0.578125 -0.457031 0.453125 -0.75 C 0.328125 -1.039062 0.265625 -1.414062 0.265625 -1.875 C 0.265625 -2.3125 0.332031 -2.671875 0.46875 -2.953125 C 0.613281 -3.234375 0.804688 -3.445312 1.046875 -3.59375 C 1.285156 -3.738281 1.5625 -3.8125 1.875 -3.8125 Z M 1.875 -3.8125 "/></g></g></g><path fill="#ff9130" d="M 8.945312 9.125 C 8.964844 9.101562 8.964844 9.097656 8.964844 9.066406 C 8.945312 9.046875 8.941406 9.050781 8.910156 9.042969 C 8.882812 9.066406 8.882812 9.070312 8.882812 9.105469 C 8.910156 9.128906 8.910156 9.125 8.945312 9.125 Z M 8.945312 9.125 " fill-opacity="1" fill-rule="nonzero"/><path fill="#ff9130" d="M 8.832031 9.351562 C 8.855469 9.367188 8.859375 9.375 8.882812 9.367188 L 8.894531 9.367188 L 8.914062 9.339844 C 8.902344 9.3125 8.902344 9.308594 8.878906 9.292969 C 8.867188 9.289062 8.855469 9.289062 8.84375 9.289062 C 8.824219 9.320312 8.824219 9.320312 8.832031 9.351562 Z M 8.832031 9.351562 " fill-opacity="1" fill-rule="nonzero"/><path fill="#ff9130" d="M 8.40625 9.226562 C 8.414062 9.265625 8.417969 9.269531 8.441406 9.292969 C 8.457031 9.296875 8.46875 9.300781 8.480469 9.300781 C 8.488281 9.265625 8.492188 9.257812 8.484375 9.222656 C 8.457031 9.207031 8.453125 9.207031 8.421875 9.207031 Z M 8.40625 9.226562 " fill-opacity="1" fill-rule="nonzero"/><path fill="#ff9130" d="M 8.871094 8.761719 C 8.859375 8.789062 8.859375 8.792969 8.867188 8.824219 C 8.898438 8.839844 8.910156 8.84375 8.941406 8.832031 C 8.953125 8.804688 8.953125 8.800781 8.949219 8.769531 C 8.921875 8.753906 8.902344 8.757812 8.871094 8.761719 Z M 8.871094 8.761719 " fill-opacity="1" fill-rule="nonzero"/><path fill="#ff9130" d="M 8.625 9.257812 C 8.613281 9.289062 8.617188 9.292969 8.621094 9.332031 C 8.652344 9.34375 8.660156 9.34375 8.695312 9.335938 C 8.707031 9.304688 8.707031 9.304688 8.695312 9.269531 C 8.664062 9.25 8.664062 9.253906 8.625 9.257812 Z M 8.625 9.257812 " fill-opacity="1" fill-rule="nonzero"/><path fill="#ff9130" d="M 8.6875 9.023438 C 8.675781 9.050781 8.664062 9.058594 8.671875 9.089844 C 8.699219 9.109375 8.71875 9.113281 8.753906 9.109375 C 8.773438 9.085938 8.769531 9.085938 8.765625 9.054688 C 8.75 9.039062 8.734375 9.019531 8.707031 9.019531 Z M 8.6875 9.023438 " fill-opacity="1" fill-rule="nonzero"/><path fill="#ff9130" d="M 8.519531 9.085938 C 8.535156 9.054688 8.535156 9.050781 8.53125 9.019531 C 8.511719 9 8.503906 8.992188 8.472656 8.996094 L 8.457031 9.003906 C 8.4375 9.039062 8.4375 9.035156 8.449219 9.074219 C 8.46875 9.085938 8.476562 9.09375 8.5 9.097656 Z M 8.519531 9.085938 " fill-opacity="1" fill-rule="nonzero"/><path fill="#ff9130" d="M 8.613281 7.707031 C 8.574219 7.726562 8.578125 7.722656 8.558594 7.757812 C 8.566406 7.773438 8.566406 7.78125 8.582031 7.789062 C 8.601562 7.796875 8.613281 7.792969 8.632812 7.792969 L 8.671875 7.785156 C 8.679688 7.757812 8.671875 7.753906 8.664062 7.726562 C 8.644531 7.714844 8.632812 7.710938 8.613281 7.707031 Z M 8.613281 7.707031 " fill-opacity="1" fill-rule="nonzero"/><path fill="#ff9130" d="M 8.296875 9.054688 L 8.328125 9.046875 C 8.339844 9.011719 8.339844 8.996094 8.332031 8.964844 C 8.304688 8.949219 8.273438 8.949219 8.242188 8.957031 C 8.242188 8.988281 8.25 9.007812 8.273438 9.03125 C 8.277344 9.039062 8.289062 9.046875 8.296875 9.054688 Z M 8.296875 9.054688 " fill-opacity="1" fill-rule="nonzero"/><path fill="#ff9130" d="M 8.84375 8.515625 L 8.839844 8.558594 C 8.859375 8.578125 8.867188 8.59375 8.894531 8.59375 C 8.902344 8.59375 8.910156 8.589844 8.914062 8.589844 C 8.941406 8.5625 8.941406 8.5625 8.945312 8.527344 C 8.921875 8.503906 8.910156 8.503906 8.871094 8.5 Z M 8.84375 8.515625 " fill-opacity="1" fill-rule="nonzero"/><path fill="#ff9130" d="M 8.636719 8.738281 C 8.625 8.738281 8.621094 8.738281 8.613281 8.742188 C 8.597656 8.773438 8.597656 8.777344 8.601562 8.8125 C 8.628906 8.835938 8.65625 8.835938 8.691406 8.835938 C 8.714844 8.804688 8.707031 8.796875 8.707031 8.761719 C 8.683594 8.742188 8.667969 8.734375 8.636719 8.738281 Z M 8.636719 8.738281 " fill-opacity="1" fill-rule="nonzero"/><path fill="#ff9130" d="M 8.390625 8.691406 L 8.363281 8.710938 C 8.363281 8.75 8.359375 8.753906 8.375 8.785156 C 8.402344 8.796875 8.414062 8.804688 8.441406 8.800781 L 8.46875 8.785156 C 8.46875 8.75 8.472656 8.738281 8.457031 8.707031 C 8.433594 8.695312 8.414062 8.6875 8.390625 8.691406 Z M 8.390625 8.691406 " fill-opacity="1" fill-rule="nonzero"/><path fill="#ff9130" d="M 8.207031 8.738281 C 8.21875 8.738281 8.234375 8.730469 8.246094 8.730469 C 8.238281 8.691406 8.199219 8.648438 8.167969 8.625 C 8.144531 8.609375 8.128906 8.613281 8.105469 8.621094 C 8.105469 8.65625 8.101562 8.671875 8.128906 8.699219 C 8.148438 8.71875 8.179688 8.738281 8.207031 8.738281 Z M 8.207031 8.738281 " fill-opacity="1" fill-rule="nonzero"/><path fill="#ff9130" d="M 8.347656 8.394531 L 8.335938 8.394531 C 8.316406 8.425781 8.308594 8.445312 8.316406 8.480469 C 8.324219 8.507812 8.339844 8.511719 8.359375 8.523438 L 8.402344 8.519531 C 8.421875 8.484375 8.414062 8.457031 8.414062 8.414062 C 8.390625 8.394531 8.378906 8.390625 8.347656 8.394531 Z M 8.347656 8.394531 " fill-opacity="1" fill-rule="nonzero"/><path fill="#ff9130" d="M 8.207031 8.117188 L 8.238281 8.125 L 8.269531 8.113281 C 8.277344 8.082031 8.277344 8.0625 8.273438 8.027344 C 8.246094 7.996094 8.246094 7.996094 8.207031 7.988281 C 8.175781 8.011719 8.175781 8.015625 8.164062 8.050781 C 8.175781 8.085938 8.179688 8.09375 8.207031 8.117188 Z M 8.207031 8.117188 " fill-opacity="1" fill-rule="nonzero"/><path fill="#ff9130" d="M 8.101562 8.335938 C 8.078125 8.363281 8.082031 8.371094 8.082031 8.40625 C 8.097656 8.433594 8.113281 8.457031 8.144531 8.464844 C 8.160156 8.46875 8.164062 8.46875 8.179688 8.472656 C 8.199219 8.441406 8.191406 8.414062 8.191406 8.378906 C 8.171875 8.347656 8.171875 8.347656 8.136719 8.332031 Z M 8.101562 8.335938 " fill-opacity="1" fill-rule="nonzero"/><path fill="#ff9130" d="M 9.027344 8.242188 C 9.050781 8.265625 9.0625 8.273438 9.09375 8.285156 C 9.109375 8.28125 9.125 8.277344 9.136719 8.273438 L 9.160156 8.246094 C 9.160156 8.21875 9.152344 8.199219 9.128906 8.183594 C 9.109375 8.164062 9.082031 8.167969 9.054688 8.171875 L 9.042969 8.175781 C 9.03125 8.203125 9.023438 8.210938 9.027344 8.242188 Z M 9.027344 8.242188 " fill-opacity="1" fill-rule="nonzero"/><path fill="#ff9130" d="M 8.613281 8.453125 L 8.59375 8.457031 C 8.574219 8.480469 8.574219 8.492188 8.570312 8.523438 C 8.585938 8.554688 8.597656 8.570312 8.632812 8.582031 C 8.644531 8.585938 8.644531 8.582031 8.65625 8.582031 L 8.683594 8.558594 C 8.6875 8.527344 8.695312 8.503906 8.683594 8.476562 C 8.660156 8.460938 8.640625 8.445312 8.613281 8.453125 Z M 8.613281 8.453125 " fill-opacity="1" fill-rule="nonzero"/><path fill="#ff9130" d="M 8.472656 8.042969 C 8.457031 8.074219 8.453125 8.105469 8.457031 8.144531 C 8.460938 8.15625 8.464844 8.164062 8.472656 8.175781 C 8.5 8.1875 8.507812 8.1875 8.535156 8.179688 L 8.546875 8.175781 C 8.574219 8.144531 8.582031 8.113281 8.574219 8.074219 L 8.574219 8.054688 C 8.539062 8.035156 8.511719 8.03125 8.472656 8.042969 Z M 8.472656 8.042969 " fill-opacity="1" fill-rule="nonzero"/><path fill="#ff9130" d="M 8.753906 8.101562 L 8.742188 8.101562 C 8.71875 8.132812 8.722656 8.140625 8.71875 8.179688 C 8.734375 8.203125 8.738281 8.222656 8.769531 8.230469 C 8.78125 8.234375 8.808594 8.234375 8.824219 8.230469 L 8.851562 8.214844 C 8.855469 8.175781 8.855469 8.167969 8.84375 8.132812 C 8.8125 8.109375 8.792969 8.09375 8.753906 8.101562 Z M 8.753906 8.101562 " fill-opacity="1" fill-rule="nonzero"/><path fill="#ff9130" d="M 8.878906 7.695312 C 8.867188 7.691406 8.851562 7.695312 8.835938 7.699219 C 8.820312 7.722656 8.816406 7.738281 8.8125 7.765625 C 8.851562 7.820312 8.96875 7.867188 9.027344 7.894531 L 9.050781 7.886719 C 9.011719 7.808594 8.964844 7.726562 8.878906 7.695312 Z M 8.878906 7.695312 " fill-opacity="1" fill-rule="nonzero"/><path fill="#ff9130" d="M 3.222656 3.574219 C 3.109375 3.503906 2.957031 3.464844 2.828125 3.449219 C 2.730469 3.4375 2.613281 3.332031 2.554688 3.257812 C 2.519531 3.214844 2.5 3.128906 2.453125 3.105469 L 2.417969 3.113281 C 2.382812 3.140625 2.363281 3.160156 2.359375 3.207031 C 2.347656 3.277344 2.394531 3.347656 2.4375 3.398438 C 2.523438 3.496094 2.625 3.585938 2.722656 3.671875 C 2.707031 3.761719 2.6875 3.859375 2.695312 3.949219 C 2.707031 4.070312 2.773438 4.183594 2.839844 4.28125 C 2.992188 4.488281 3.148438 4.65625 3.214844 4.910156 C 3.226562 4.863281 3.222656 4.804688 3.226562 4.753906 C 3.234375 4.609375 3.246094 4.480469 3.167969 4.351562 C 3.085938 4.210938 2.933594 4.089844 2.898438 3.929688 L 2.898438 3.914062 C 2.902344 3.859375 2.90625 3.8125 2.949219 3.773438 C 2.96875 3.757812 2.988281 3.746094 3.011719 3.75 C 3.058594 3.753906 3.097656 3.785156 3.136719 3.816406 C 3.246094 3.90625 3.339844 4.023438 3.429688 4.136719 L 3.640625 4.425781 C 3.578125 4.121094 3.488281 3.757812 3.222656 3.574219 Z M 3.222656 3.574219 " fill-opacity="1" fill-rule="nonzero"/><path fill="#ff9130" d="M 7.441406 5.566406 C 7.289062 5.535156 7.136719 5.464844 6.992188 5.414062 C 6.785156 5.339844 6.570312 5.277344 6.367188 5.195312 C 6.300781 5.167969 6.238281 5.125 6.171875 5.105469 C 6.277344 5.242188 6.386719 5.402344 6.527344 5.5 C 6.636719 5.578125 6.773438 5.601562 6.898438 5.640625 C 7.179688 5.734375 7.507812 5.929688 7.660156 6.191406 C 7.699219 6.269531 7.734375 6.363281 7.789062 6.429688 C 7.875 6.546875 7.992188 6.648438 8.09375 6.753906 C 8.210938 6.875 8.308594 7.007812 8.371094 7.160156 C 8.386719 7.050781 8.421875 6.890625 8.40625 6.785156 C 8.390625 6.691406 8.328125 6.597656 8.273438 6.527344 C 8.15625 6.371094 8.007812 6.238281 7.914062 6.0625 C 7.777344 5.804688 7.734375 5.503906 7.585938 5.257812 C 7.515625 5.144531 7.425781 5.058594 7.320312 4.976562 C 7.28125 4.949219 7.210938 4.890625 7.160156 4.878906 L 7.171875 4.898438 C 7.195312 4.953125 7.238281 4.996094 7.269531 5.046875 C 7.332031 5.152344 7.382812 5.273438 7.425781 5.386719 C 7.445312 5.441406 7.46875 5.492188 7.46875 5.554688 C 7.445312 5.570312 7.453125 5.570312 7.441406 5.566406 Z M 7.441406 5.566406 " fill-opacity="1" fill-rule="nonzero"/><g clip-path="url(#24b77eb8c1)"><path fill="#ff9130" d="M 4.433594 3.160156 C 4.339844 3.148438 4.242188 3.171875 4.152344 3.179688 C 3.953125 3.203125 3.765625 3.179688 3.574219 3.117188 C 3.375 3.054688 3.242188 2.925781 3.082031 2.800781 C 2.886719 2.644531 2.671875 2.554688 2.421875 2.542969 C 2.222656 2.558594 2.070312 2.621094 1.941406 2.777344 C 1.746094 3.011719 1.722656 3.3125 1.75 3.605469 C 1.769531 3.820312 1.832031 4.039062 1.910156 4.238281 C 1.9375 4.296875 1.964844 4.355469 1.992188 4.414062 C 1.996094 4.421875 2.015625 4.457031 2.015625 4.464844 C 2.011719 4.488281 1.972656 4.550781 1.960938 4.574219 C 1.867188 4.761719 1.769531 4.945312 1.675781 5.128906 C 1.230469 6 0.753906 6.957031 0.761719 7.953125 C 0.765625 8.304688 0.832031 8.636719 1.074219 8.910156 C 1.03125 8.738281 1.011719 8.554688 0.992188 8.375 C 0.96875 8.121094 0.960938 7.863281 0.988281 7.605469 C 1.066406 6.863281 1.382812 6.171875 1.710938 5.507812 C 1.808594 5.300781 1.914062 5.101562 2.019531 4.898438 C 2.0625 4.820312 2.101562 4.730469 2.148438 4.660156 L 2.15625 4.648438 C 2.28125 4.804688 2.402344 4.964844 2.527344 5.121094 C 2.640625 5.265625 2.773438 5.414062 2.84375 5.582031 C 2.878906 5.664062 2.886719 5.730469 2.875 5.816406 L 2.785156 6.179688 C 2.734375 6.394531 2.6875 6.609375 2.667969 6.828125 C 2.644531 7.078125 2.667969 7.328125 2.714844 7.570312 C 2.75 7.777344 2.808594 7.976562 2.914062 8.15625 C 2.964844 8.242188 3.03125 8.308594 3.097656 8.382812 L 3.089844 8.367188 C 3.042969 8.273438 3.03125 8.167969 3.007812 8.066406 C 2.894531 7.597656 2.816406 7.101562 2.890625 6.617188 C 2.914062 6.476562 2.945312 6.332031 2.984375 6.195312 C 3.03125 6.007812 3.125 5.746094 3.066406 5.554688 C 3.035156 5.445312 2.953125 5.34375 2.886719 5.25 C 2.679688 4.960938 2.417969 4.714844 2.226562 4.414062 C 2.089844 4.195312 1.996094 3.933594 1.960938 3.679688 C 1.9375 3.488281 1.929688 3.289062 1.996094 3.105469 C 2.039062 2.980469 2.125 2.851562 2.25 2.796875 C 2.390625 2.734375 2.578125 2.765625 2.714844 2.820312 C 2.933594 2.910156 3.09375 3.082031 3.296875 3.195312 C 3.5625 3.339844 3.964844 3.40625 4.265625 3.363281 C 4.445312 3.335938 4.613281 3.289062 4.800781 3.289062 C 4.683594 3.234375 4.5625 3.171875 4.433594 3.160156 Z M 4.433594 3.160156 " fill-opacity="1" fill-rule="nonzero"/></g><g clip-path="url(#cf0924db74)"><path fill="#ff9130" d="M 10.996094 7.476562 C 10.960938 7.414062 10.90625 7.367188 10.847656 7.328125 C 10.832031 7.316406 10.800781 7.304688 10.792969 7.292969 C 10.789062 7.292969 10.785156 7.261719 10.78125 7.257812 C 10.769531 7.207031 10.761719 7.148438 10.746094 7.097656 C 10.730469 7.0625 10.703125 7.027344 10.683594 7 C 10.425781 6.667969 10.160156 6.34375 9.898438 6.019531 C 9.703125 5.773438 9.484375 5.535156 9.324219 5.265625 C 9.3125 5.242188 9.277344 5.199219 9.277344 5.171875 C 9.273438 5.15625 9.28125 5.125 9.28125 5.105469 C 9.289062 5.050781 9.296875 4.996094 9.300781 4.941406 C 9.332031 4.617188 9.34375 4.199219 9.050781 3.984375 C 9.023438 3.960938 8.996094 3.941406 8.964844 3.929688 C 8.941406 3.917969 8.914062 3.90625 8.890625 3.898438 C 8.78125 3.871094 8.640625 3.882812 8.542969 3.9375 C 8.503906 3.960938 8.46875 3.988281 8.433594 4.019531 C 8.257812 3.839844 8.078125 3.675781 7.875 3.527344 C 7.054688 2.921875 6.039062 2.617188 5.027344 2.609375 L 4.660156 2.613281 C 4.285156 2.640625 3.890625 2.691406 3.535156 2.824219 C 3.484375 2.84375 3.394531 2.878906 3.363281 2.921875 L 3.355469 2.9375 C 3.386719 2.964844 3.410156 2.96875 3.449219 2.964844 C 3.621094 2.960938 3.792969 2.925781 3.960938 2.898438 C 4.199219 2.859375 4.433594 2.824219 4.671875 2.804688 C 5.882812 2.726562 7.214844 3.121094 8.113281 3.957031 C 8.289062 4.117188 8.449219 4.304688 8.597656 4.496094 C 8.820312 4.789062 8.976562 5.125 9.191406 5.421875 C 9.5625 5.925781 9.988281 6.390625 10.367188 6.886719 C 10.46875 7.019531 10.5625 7.140625 10.617188 7.296875 C 10.5625 7.398438 10.503906 7.457031 10.390625 7.488281 C 10.347656 7.5 10.316406 7.492188 10.28125 7.46875 C 10.214844 7.425781 10.144531 7.375 10.074219 7.335938 C 9.941406 7.269531 9.765625 7.238281 9.621094 7.269531 C 9.515625 7.289062 9.398438 7.335938 9.335938 7.425781 C 9.296875 7.488281 9.289062 7.566406 9.308594 7.640625 C 9.34375 7.792969 9.441406 7.921875 9.578125 8.003906 C 9.699219 8.078125 9.851562 8.117188 9.957031 8.210938 C 10.023438 8.269531 10.0625 8.335938 10.097656 8.414062 C 10.121094 8.46875 10.152344 8.523438 10.164062 8.578125 C 10.167969 8.601562 10.167969 8.617188 10.164062 8.640625 L 10.164062 8.65625 C 10.144531 8.8125 10.058594 9.0625 9.925781 9.160156 C 9.777344 9.269531 9.578125 9.300781 9.421875 9.398438 C 9.476562 9.507812 9.523438 9.644531 9.480469 9.769531 C 9.441406 9.863281 9.371094 9.933594 9.277344 9.972656 C 9.082031 10.050781 8.824219 10.035156 8.621094 10.007812 C 8.53125 9.996094 8.445312 9.984375 8.359375 9.949219 C 8.199219 9.878906 8.128906 9.695312 8.046875 9.550781 C 8.007812 9.480469 7.960938 9.417969 7.90625 9.363281 C 7.484375 8.929688 6.632812 8.667969 6.042969 8.667969 C 5.792969 8.667969 5.546875 8.714844 5.3125 8.804688 C 5.011719 8.921875 4.753906 9.097656 4.625 9.398438 C 4.5 9.6875 4.527344 10.015625 4.640625 10.304688 C 4.714844 10.496094 4.820312 10.671875 4.972656 10.8125 L 4.875 10.503906 C 4.824219 10.339844 4.78125 10.183594 4.761719 10.015625 C 4.734375 9.785156 4.761719 9.507812 4.910156 9.320312 C 4.960938 9.257812 5.023438 9.207031 5.089844 9.15625 C 5.054688 9.386719 5.039062 9.59375 5.097656 9.820312 C 5.207031 10.273438 5.484375 10.679688 5.664062 11.109375 C 5.742188 11.296875 5.816406 11.488281 5.886719 11.675781 C 5.925781 11.785156 5.964844 11.929688 6.03125 12.027344 C 6.019531 11.769531 6 11.511719 5.957031 11.253906 C 5.878906 10.75 5.648438 10.175781 6.046875 9.746094 C 6.300781 9.472656 6.679688 9.378906 7.042969 9.371094 C 7.28125 9.363281 7.644531 9.398438 7.820312 9.570312 C 7.898438 9.648438 7.941406 9.753906 8.007812 9.839844 C 8.234375 10.148438 8.585938 10.230469 8.957031 10.226562 C 9.15625 10.226562 9.390625 10.191406 9.535156 10.039062 C 9.632812 9.9375 9.695312 9.777344 9.691406 9.632812 L 9.675781 9.484375 L 9.6875 9.492188 C 9.757812 9.515625 9.789062 9.507812 9.851562 9.476562 C 9.941406 9.429688 10.011719 9.359375 10.066406 9.28125 C 10.257812 9.023438 10.324219 8.703125 10.46875 8.425781 C 10.507812 8.359375 10.546875 8.296875 10.597656 8.246094 C 10.753906 8.097656 10.9375 8.015625 11.003906 7.792969 C 11.042969 7.6875 11.042969 7.570312 10.996094 7.476562 Z M 9.089844 4.953125 L 9.074219 4.925781 C 8.953125 4.648438 8.785156 4.40625 8.605469 4.167969 L 8.707031 4.121094 C 8.746094 4.121094 8.789062 4.113281 8.828125 4.121094 C 8.898438 4.128906 8.957031 4.175781 9 4.230469 C 9.148438 4.421875 9.117188 4.734375 9.089844 4.953125 Z M 6.535156 9.238281 C 6.214844 9.332031 5.921875 9.527344 5.761719 9.828125 C 5.660156 10.023438 5.621094 10.265625 5.644531 10.480469 C 5.652344 10.578125 5.683594 10.671875 5.691406 10.769531 C 5.640625 10.648438 5.585938 10.523438 5.53125 10.402344 C 5.425781 10.183594 5.304688 9.9375 5.277344 9.691406 C 5.253906 9.492188 5.277344 9.214844 5.414062 9.054688 C 5.535156 8.90625 5.761719 8.882812 5.941406 8.867188 C 6.28125 8.851562 6.625 8.925781 6.949219 9.023438 C 7.089844 9.066406 7.242188 9.117188 7.367188 9.1875 C 7.09375 9.152344 6.804688 9.15625 6.535156 9.238281 Z M 10.835938 7.707031 C 10.816406 7.8125 10.679688 7.890625 10.597656 7.949219 C 10.476562 8.03125 10.390625 8.121094 10.308594 8.246094 C 10.28125 8.167969 10.273438 8.105469 10.230469 8.03125 C 10.117188 7.859375 9.9375 7.855469 9.753906 7.8125 C 9.6875 7.796875 9.636719 7.769531 9.601562 7.707031 C 9.582031 7.671875 9.546875 7.585938 9.5625 7.550781 C 9.578125 7.511719 9.613281 7.496094 9.648438 7.480469 L 9.679688 7.472656 C 9.882812 7.460938 10.03125 7.53125 10.199219 7.636719 C 10.226562 7.652344 10.28125 7.683594 10.308594 7.6875 C 10.324219 7.691406 10.359375 7.679688 10.375 7.671875 C 10.460938 7.648438 10.542969 7.601562 10.625 7.5625 C 10.664062 7.542969 10.710938 7.519531 10.757812 7.515625 C 10.789062 7.511719 10.808594 7.53125 10.832031 7.550781 C 10.851562 7.597656 10.847656 7.652344 10.835938 7.707031 Z M 10.835938 7.707031 " fill-opacity="1" fill-rule="nonzero"/></g></svg>